<?xml version="1.0" encoding="utf-8"?>
<!-- Generator: Adobe Illustrator 25.4.1, SVG Export Plug-In . SVG Version: 6.00 Build 0)  -->
<svg version="1.1" id="Layer_1" xmlns="http://www.w3.org/2000/svg" xmlns:xlink="http://www.w3.org/1999/xlink" x="0px" y="0px"
	 viewBox="0 0 473.78 440.61" style="enable-background:new 0 0 473.78 440.61;" xml:space="preserve">
<style type="text/css">
	.st0{fill:#FFFFFF;}
	.st1{fill:#00734A;}
</style>
<g id="XMLID_7_">
	<g id="XMLID_2_">
		<path id="XMLID_100_" class="st0" d="M146.68,151.66c-0.45,0-0.89-0.16-1.23-0.45c-0.4-0.34-0.64-0.82-0.68-1.34
			c-0.1-1.36-0.3-4.66-0.18-5.82c0.01-0.13,0.04-0.25,0.08-0.37c0.21-0.68,0.44-1.38,33.59-29.35c0.07-0.05,0.13-0.1,0.2-0.15
			l18.77-11.98c0.28-1.01,0.84-3.33,1.43-5.88l-29.11,6.73c-0.14,0.03-0.29,0.05-0.43,0.05c-0.55,0-1.08-0.24-1.45-0.66
			c-0.47-0.54-0.6-1.29-0.34-1.95c3.08-7.93,7.01-17.63,8.28-18.81c0.2-0.18,0.43-0.32,0.68-0.41c0.94-0.32,9.33-1.89,12.03-2.39
			l0.53-2.4c0.17-0.74,0.76-1.32,1.51-1.47l16.97-3.3l7.63-20.25c0.29-0.76,1.01-1.24,1.8-1.24c0.11,0,0.23,0.01,0.34,0.03
			c3.08,0.56,13.22,2.41,14.31,2.75c0.72,0.23,1.24,0.86,1.33,1.61c0.65,5.68,1.68,14.38,2.16,17.83
			c6.63-0.07,30.64-0.32,32.38-0.32c0.22,0,0.53,0.04,0.74,0.11c0.15,0.05,0.29,0.13,0.43,0.21c0.06,0.03,0.52,0.25,1.16,0.57
			c8.48,4.17,9.29,4.91,9.58,6.12c0.03,0.12,0.05,0.25,0.05,0.38l0.41,11.17c0.04,0.95-0.63,1.79-1.57,1.96
			c-0.33,0.06-0.77,0.14-8.23,0.14c-3.41,0-7.5-0.02-11.46-0.03c-3.68-0.02-7.23-0.03-9.99-0.03c-1.74,0-2.89,0.01-3.65,0.01
			c0.03,0.91,0.19,2.09,0.26,2.59c0.02,0.17,0.04,0.32,0.06,0.46c3.7,3.54,32.58,24.01,36.47,24.46c4.64,0.54,17.47,1.38,18.18,1.4
			c0.33,0.01,0.67,0.11,0.95,0.28c5.72,3.51,15.38,9.89,15.69,13.2c0.17,1.81,0.08,4.59,0,7.05c-0.05,1.37-0.09,2.61-0.07,3.42
			c0.02,1.05-0.8,1.92-1.85,1.96c-0.67,0.07-3.76,1.17-5.42,1.77c-2.46,0.88-3.29,1.17-3.84,1.23c-0.07,0.01-0.15,0.01-0.22,0.01
			c-0.13,0-0.26-0.01-0.39-0.04l-21.39-4.5l-19.54-5.15c-0.23-0.06-0.46-0.17-0.65-0.31c-1.66-1.22-4.95-3.78-8.72-6.71
			c-5.66-4.4-14.68-11.41-17.79-13.49c-1.21,2.44-2.83,9.46-2.96,11.02c0.06,1.38-1.97,12.15-2.59,15.41
			c-0.14,0.71-0.66,1.29-1.36,1.49c-1.77,0.5-6.03,1.68-7.44,1.74c-1.77,0-2.33-1.65-2.87-3.23c-0.01-0.03-0.02-0.07-0.03-0.1
			l-2.49-0.38c-0.87-0.13-1.54-0.84-1.62-1.71c-1.41-14.66-2.55-19.27-3.03-20.65c-2.43,0.84-15.44,9.18-26.94,16.98
			c-0.07,0.05-0.15,0.09-0.23,0.13l-16.55,8.18c-0.2,0.1-0.42,0.16-0.65,0.19l-20.85,2.19
			C146.81,151.65,146.74,151.66,146.68,151.66z"/>
		<g id="XMLID_25_">
			<path id="XMLID_97_" class="st0" d="M159.25,306.62c-0.1,0-0.2-0.01-0.3-0.02l-7.88-1.24c-0.34-0.05-0.67-0.2-0.93-0.42
				c-0.67-0.56-2.27-2.63-6.02-7.57c-2.11-2.77-4.98-6.55-5.63-7.19c-0.57-0.43-0.86-1.16-0.73-1.88l5.12-27.88
				c1.01-13.88,2.5-34.59,2.76-39.03c-0.23-0.19-0.51-0.41-0.79-0.64c-3.22,4.05-12.54,15.96-19.03,24.25
				c-0.13,0.16-0.28,0.31-0.45,0.42c-0.62,0.41-4.2,2.92-21.25,15.17l-0.43,0.31c-2.41,1.74-33.67,19.42-37.22,21.43
				c-0.29,0.17-0.62,0.25-0.94,0.25c-0.28,0-0.57-0.06-0.83-0.19c-6.04-2.9-6.04-2.9-6.36-3.23c-0.15-0.16-0.27-0.35-0.36-0.55
				c-0.9-2.07-1.5-10.89,0.93-16.51c0.19-0.43,0.52-0.77,0.94-0.97c29.85-14.15,36.46-17.88,37.56-18.53l28.25-30.31l6.45-12.17
				c-8.72,1.77-29.92,6.26-43.38,10.75c-0.2,0.07-0.4,0.1-0.61,0.1c-0.3,0-0.61-0.07-0.88-0.21c-0.46-0.24-0.8-0.65-0.96-1.14
				l-1.8-5.87c-0.18-0.6-0.06-1.26,0.33-1.75c2.46-3.11,4.36-5.83,5.75-7.81c1.54-2.2,2.05-2.91,2.59-3.33
				c0.16-0.12,0.33-0.22,0.51-0.28c1.03-0.37,33.37-8.7,44.81-11.64l5.29-13.35c0.28-0.71,0.96-1.19,1.73-1.21
				c0,0,17.79-0.54,17.81-0.54c0.75,0,1.44,0.44,1.75,1.13l4.36,9.62c0,0,31.92-1.33,31.94-1.33c0.32,0,0.63,0.08,0.91,0.23
				l7.71,4.13c0.71,0.38,1.1,1.15,1,1.95l-1.29,9.52c-0.09,0.67-0.53,1.25-1.15,1.51c-0.33,0.14-0.94,0.4-34.62,3.83
				c0.5,2.9,1,5.71,1.25,7.04l9.12,4.63c0.38,0.19,0.68,0.5,0.86,0.89l2.33,4.88c1.61,1.42,10.71,9.18,16.84,14.39
				c0.12,0.09,0.43,0.3,0.85,0.6c10.06,7.09,10.03,7.52,9.96,8.81c-0.02,0.35-0.14,0.7-0.34,0.99l-7.41,10.54
				c-0.36,0.52-0.95,0.82-1.57,0.82c-0.09,0-0.18-0.01-0.28-0.02l-5.77-0.84l-2.22,1.45c-0.31,0.2-0.68,0.31-1.05,0.31
				c-0.06,0-0.13,0-0.19-0.01c-1.04-0.1-4.63-1.93-5.43-2.39c-0.32-0.18-0.89-0.65-12.68-10.68c-3.78-3.21-8.15-6.94-10.95-9.3
				c-0.5,12.99-1.96,55.02-1.96,56.91c0.05,0.66,0.99,5.28,1.68,8.65c1.64,8,1.78,8.88,1.72,9.48c-0.16,1.63-1.68,2.26-6.44,4.03
				c-0.79,0.29-1.48,0.54-1.82,0.69l0,0C160.05,306.49,159.65,306.62,159.25,306.62z"/>
			<path id="XMLID_93_" class="st0" d="M276.56,312.22c-4.43,0-4.59-0.09-5.07-0.37c-0.37-0.22-0.65-0.55-0.81-0.94
				c-0.17-0.42-0.43-1.66-2.67-13.94c-0.61-3.35-1.12-6.11-1.2-6.49c-0.23-0.9-0.13-2.05,0.26-6.35c0.33-3.64,0.83-9.15,1.46-18.15
				c0.98-13.9,0.47-33.96,0.34-38.51c-0.75-0.54-1.52-1.08-2.15-1.51c-5.28,8.49-26.98,43.28-27.65,44.26
				c-0.86,1.25-2.08,4.9-3.1,9.3c-0.15,0.63-0.6,1.14-1.2,1.36l-4.08,1.53c-1.32,1.38-6.94,8.07-7.82,9.83
				c-1.46,2.92-16.14,4.78-16.28,4.78c-1.01,0-2.38,0-13.19-14.92c-0.28-0.39-0.41-0.88-0.35-1.36c0.75-6,1.65-6.9,1.98-7.24
				c0.13-0.13,0.27-0.23,0.42-0.32c0.5-0.28,0.69-0.32,5.93-0.87c3.07-0.32,8.2-0.87,9.08-1.16c1.5-1.04,10.56-12.83,18.63-23.89
				l27.78-45.57c-8.24,1.62-25.71,5.08-28.28,5.64c-0.14,0.03-0.27,0.05-0.41,0.05c-0.43,0-0.86-0.15-1.2-0.42
				c-0.45-0.37-0.72-0.91-0.72-1.5v-10.07c0-0.36,0.1-0.71,0.29-1.01l7.22-11.62c0.27-0.45,0.72-0.76,1.23-0.87l7.44-1.59l21.1-5
				c0.04-0.33,0.08-0.71,0.13-1.14c0.77-6.93,1.45-11,2.86-12.62c0.37-0.43,0.9-0.67,1.45-0.67c0.1,0,0.2,0.01,0.31,0.02
				c6.23,1.01,16.48,2.64,17.47,2.71c0.68,0.05,1.28,0.45,1.58,1.06c1.55,3.11,3.32,6.55,4.15,8.02c0,0,49.87-0.25,49.87-0.25
				c0.32,0,0.64,0.08,0.92,0.24l11.79,6.44c0.6,0.33,0.98,0.94,1,1.62c0.01,0.38,0.1,1.54,0.21,3.04c0.9,12.12,0.77,12.24-0.1,13.05
				c-0.35,0.33-0.82,0.51-1.3,0.51c-0.02,0-0.05,0-0.07,0c-0.46-0.02-5.21-0.04-13.09-0.04c-20.35,0-42.86,0.11-48.05,0.36
				c0.04,0.93,0.29,2.37,0.5,3.13l31.47,34.32c3.34,2.14,44.65,28.61,45.27,29.01c0.17,0.11,0.33,0.25,0.46,0.4l2.28,2.75
				c3.67,0.85,24.58,5.39,38.71,8.45c0.88,0.19,1.51,0.97,1.51,1.88v6.22c0,0.39-0.12,0.76-0.34,1.08
				c-1.36,1.98-21.67,19.02-23.63,19.83c-0.56,0.23-1.5,0.47-5.69,0.47c-6.75,0-18.32-0.64-22.67-0.89
				c-1.02-0.06-1.68-0.09-1.83-0.1c-0.15,0-0.32-0.03-0.46-0.06l-21.39-5.57c-0.4-0.11-0.76-0.34-1.02-0.67
				c-13.6-17.14-17.48-22.05-18.62-23.53c-0.65-0.19-1.99-0.52-3.12-0.77c-0.47-0.11-0.89-0.39-1.16-0.79l-16.4-24.04
				c-2.18-3.45-5.14-8.11-7.37-11.61c-0.3,10.3-0.69,31.53-0.13,40.43c0.7,11.02,1.69,26.05,1.69,26.05
				c0.03,0.47-0.11,0.94-0.41,1.31c-1.79,2.28-5.07,6.22-6.82,6.91C283.18,311.98,282.56,312.22,276.56,312.22z"/>
		</g>
	</g>
	<path id="XMLID_30_" class="st0" d="M76.43,389.77h-5.92l-9.16-42.68v42.76h-5.37v-53.64h8.61l9.08,42.83l8.77-42.83h8.61v53.64
		H85.2v-43.14L76.43,389.77z"/>
	<path id="XMLID_102_" class="st0" d="M114.05,349.16c0-8.19,4.19-13.48,12.64-13.48c8.53,0,12.72,5.29,12.72,13.48v27.74
		c0,8.12-4.19,13.48-12.72,13.48c-8.45,0-12.64-5.36-12.64-13.48V349.16z M120.13,377.21c0,4.9,2.13,7.74,6.56,7.74
		c4.5,0,6.56-2.83,6.56-7.74v-28.35c0-4.83-2.05-7.74-6.56-7.74c-4.43,0-6.56,2.91-6.56,7.74V377.21z"/>
	<path id="XMLID_118_" class="st0" d="M175.39,336.21c8.69,0,12.32,4.29,12.32,12.26v4.37c0,5.9-2.13,9.58-6.87,11.03
		c5.06,1.45,6.95,5.44,6.95,11.19v8.35c0,2.37,0.08,4.6,1.11,6.44h-6.24c-0.71-1.53-1.03-2.91-1.03-6.52v-8.43
		c0-6.05-2.92-7.97-8.06-7.97h-4.34v22.91h-6.16v-53.64H175.39z M173.81,361.5c4.9,0,7.82-1.53,7.82-7.36v-5.13
		c0-4.83-1.82-7.36-6.4-7.36h-6v19.84H173.81z"/>
	<path id="XMLID_122_" class="st0" d="M219.47,336.21v53.64h-6.16v-53.64H219.47z"/>
	<path id="XMLID_124_" class="st0" d="M253.39,366.55l-3.24,5.29v18.01h-6.16v-53.64h6.16v25.9l14.69-25.9h6.24l-13.98,24.44
		l14.46,29.19h-6.32L253.39,366.55z"/>
	<path id="XMLID_126_" class="st0" d="M300.3,379.05l-2.13,10.8h-5.69l10.59-53.64h8.93l10.59,53.64h-6.16l-2.13-10.8H300.3z
		 M301.09,373.91h12.32l-6.24-30.96L301.09,373.91z"/>
	<path id="XMLID_131_" class="st0" d="M364.04,361.19v5.44h-12.72v23.22h-6.16v-53.64h21.96v5.44h-15.8v19.54H364.04z"/>
	<path id="XMLID_133_" class="st0" d="M408.59,359.96v5.36h-13.51v19.08h16.59v5.44h-22.75v-53.64h22.75v5.44h-16.59v18.31H408.59z"
		/>
	<g id="XMLID_84_">
		<path id="XMLID_85_" class="st0" d="M435.06,332.04c0,5.21-4.09,9.29-9.41,9.29c-5.26,0-9.46-4.09-9.46-9.29
			c0-5.1,4.2-9.18,9.46-9.18C430.97,322.86,435.06,326.94,435.06,332.04z M418.54,332.04c0,4.09,3.02,7.34,7.17,7.34
			c4.03,0,7-3.25,7-7.28c0-4.09-2.97-7.39-7.06-7.39S418.54,328.01,418.54,332.04z M424.2,336.85h-2.13v-9.18
			c0.84-0.17,2.02-0.28,3.53-0.28c1.74,0,2.52,0.28,3.19,0.67c0.5,0.39,0.9,1.12,0.9,2.02c0,1.01-0.78,1.79-1.9,2.13v0.11
			c0.9,0.34,1.4,1.01,1.68,2.24c0.28,1.4,0.45,1.96,0.67,2.3h-2.3c-0.28-0.34-0.45-1.18-0.73-2.24c-0.17-1.01-0.73-1.46-1.9-1.46
			h-1.01V336.85z M424.25,331.65h1.01c1.18,0,2.13-0.39,2.13-1.34c0-0.84-0.62-1.4-1.96-1.4c-0.56,0-0.95,0.06-1.18,0.11V331.65z"/>
	</g>
</g>
</svg>
