<svg width="61" height="34" viewBox="0 0 61 34" fill="none" xmlns="http://www.w3.org/2000/svg">
<path d="M30.1819 14C26.6901 14 25.4406 13.8813 21.9767 13.6439C21.5249 13.6439 20.6826 13.5576 20.2363 12.3924C20.1329 12.1111 20.0612 11.791 20.0256 11.4528C19.9901 11.1146 19.9915 10.7657 20.0299 10.4287C20.0834 9.9644 20.1852 9.52601 20.329 9.1402C20.4729 8.75439 20.6558 8.42922 20.8666 8.18448C21.5383 7.55237 22.2877 7.29458 23.0309 7.44C25.9649 7.52632 26.718 7.44 29.6074 7.235C33.8913 7.01921 33.8634 6.79263 38.2198 7.3429C38.7314 7.43964 39.2453 7.48286 39.7593 7.47237C40.6351 7.47237 41.5443 7.47237 42.4479 7.59106H42.5985C43.006 7.56495 43.411 7.72385 43.781 8.055C44.3835 8.81027 43.5523 11.9716 43.5468 12.0039C43.4211 12.317 43.2579 12.566 43.0713 12.7296C42.8847 12.8932 42.6803 12.9663 42.4758 12.9426C36.5408 13.6547 36.1448 14 30.1819 14ZM22.6795 8.60527C22.156 8.53662 21.6325 8.73766 21.1623 9.1879C21.0218 9.35211 20.8999 9.56965 20.8041 9.8274C20.7082 10.0851 20.6403 10.3778 20.6045 10.6876C20.5786 10.8706 20.5742 11.0624 20.5916 11.2491C20.6089 11.4358 20.6477 11.6126 20.7049 11.7666C20.9559 12.4247 21.497 12.5111 21.9878 12.5542C31.3644 13.2016 33.049 12.9642 42.4144 11.8637C42.6487 11.8637 42.9276 11.7666 43.0113 11.4861C43.2147 10.7227 43.3415 9.89159 43.385 9.03684C43.1122 8.87483 42.8281 8.79478 42.5427 8.79948H42.3865C41.5052 8.69158 40.6016 8.69158 39.7314 8.68079C39.2055 8.67068 38.6803 8.60224 38.1584 8.47579C33.8299 7.93632 33.8745 8.15211 29.5962 8.3679C26.7012 8.51895 25.9426 8.67 23.003 8.58369L22.6795 8.60527Z" fill="#1D1D1B" stroke="#1D1D1B" stroke-width="0.75" stroke-linecap="round" stroke-linejoin="round"></path>
<path d="M20.6002 27H20.4325C20.2822 26.972 20.1555 26.9104 20.0785 26.828C20.0016 26.7455 19.9802 26.6485 20.0188 26.5569C22.0761 22.2871 22.9371 18.6281 24.8155 14.3382C24.8199 14.2851 24.8441 14.2333 24.8862 14.1865C24.9283 14.1398 24.9873 14.0993 25.0589 14.068C25.1305 14.0368 25.2128 14.0156 25.2998 14.0059C25.3869 13.9963 25.4764 13.9984 25.5619 14.0123C25.6473 14.0262 25.7265 14.0513 25.7936 14.086C25.8608 14.1206 25.9141 14.1638 25.9498 14.2125C25.9854 14.2611 26.0025 14.3139 25.9997 14.367C25.9969 14.4202 25.9743 14.4722 25.9336 14.5194C24.0664 18.8094 23.1942 22.4818 21.1481 26.7516C21.111 26.822 21.0383 26.8838 20.9401 26.9283C20.842 26.9728 20.7231 26.9979 20.6002 27Z" fill="#1D1D1B" stroke="#1D1D1B" stroke-width="0.75" stroke-linecap="round" stroke-linejoin="round"></path>
<path d="M42.6569 27C42.5908 26.9989 42.5263 26.9746 42.4715 26.9301C42.4166 26.8857 42.3737 26.8229 42.3479 26.7495C40.6896 22.021 40.0779 18.1121 38.0412 13.5961C37.9986 13.5025 37.9885 13.3923 38.0134 13.2898C38.0382 13.1873 38.0958 13.1009 38.1736 13.0496C38.2514 12.9983 38.3429 12.9862 38.428 13.0161C38.5132 13.046 38.585 13.1154 38.6276 13.209C40.6833 17.763 41.3075 21.6794 42.9722 26.4383C42.9899 26.4871 42.9993 26.5397 43 26.5929C43.0006 26.6461 42.9925 26.699 42.9761 26.7484C42.9597 26.7978 42.9353 26.8428 42.9043 26.8808C42.8733 26.9188 42.8364 26.949 42.7956 26.9696C42.7509 26.9877 42.7041 26.998 42.6569 27Z" fill="#1D1D1B" stroke="#1D1D1B" stroke-width="0.75" stroke-linecap="round" stroke-linejoin="round"></path>
<path d="M4.25909 26.9957C4.23038 27.0014 4.20112 27.0014 4.1724 26.9957C4.10833 26.9671 4.05581 26.9082 4.0261 26.8318C3.99638 26.7554 3.99185 26.6675 4.01348 26.587C4.23983 25.7756 4.39875 24.9822 4.54804 24.2189C4.76593 23.1589 5.08952 22.1371 5.51122 21.1776C5.54219 21.1015 5.59596 21.0437 5.66086 21.0167C5.72577 20.9897 5.79658 20.9957 5.85796 21.0334C5.91863 21.0708 5.96488 21.1368 5.98656 21.2169C6.00823 21.2969 6.00355 21.3844 5.97354 21.4601C5.56564 22.3693 5.25478 23.3413 5.04889 24.3511C4.88997 25.1325 4.73105 25.9379 4.49988 26.7553C4.48625 26.8227 4.45534 26.8826 4.41187 26.926C4.36839 26.9694 4.31474 26.9939 4.25909 26.9957Z" fill="#1D1D1B" stroke="#1D1D1B" stroke-width="0.75" stroke-linecap="round" stroke-linejoin="round"></path>
<path d="M47.7773 26.995C47.6911 27.0017 47.6034 27.0017 47.5172 26.995C47.325 26.9616 47.1674 26.893 47.0783 26.8038C46.9892 26.7147 46.9756 26.6121 47.0404 26.5182C47.7195 25.5715 48.1963 24.6459 48.6441 23.7554C49.2978 22.5187 50.2686 21.3266 51.5337 20.2072C51.6266 20.1184 51.7879 20.0509 51.9826 20.0194C52.1773 19.9879 52.3897 19.9949 52.5739 20.0389C52.7559 20.0826 52.8947 20.1597 52.9597 20.253C53.0247 20.3464 53.0107 20.4485 52.9206 20.5368C51.6969 21.5976 50.7644 22.7315 50.1467 23.9096C49.6699 24.8212 49.1931 25.7608 48.4997 26.7145C48.4587 26.7931 48.366 26.863 48.2356 26.9137C48.1052 26.9643 47.9442 26.9929 47.7773 26.995Z" fill="#1D1D1B" stroke="#1D1D1B" stroke-width="0.75" stroke-linecap="round" stroke-linejoin="round"></path>
<path d="M14.6485 27C14.5705 26.9992 14.4951 26.9755 14.4344 26.9327C14.3736 26.89 14.331 26.8306 14.3133 26.7641C13.9322 25.3945 13.4394 24.8018 12.9071 23.5703C12.6114 22.8798 12.3091 22.172 12.02 21.4009C12.0045 21.3631 11.9979 21.323 12.0006 21.283C12.0032 21.243 12.0149 21.2038 12.0352 21.1679C12.0554 21.1319 12.0837 21.0999 12.1183 21.0737C12.1529 21.0475 12.1932 21.0276 12.2368 21.0153C12.2804 21.0027 12.3264 20.9978 12.3721 21.0009C12.4179 21.0039 12.4625 21.0148 12.5034 21.033C12.5443 21.0512 12.5807 21.0763 12.6105 21.1068C12.6403 21.1374 12.6629 21.1727 12.6771 21.211C12.9662 21.9648 13.2685 22.6726 13.5642 23.3574C14.0965 24.6061 14.6025 25.2103 14.9902 26.6202C15.012 26.6988 14.9972 26.7818 14.9491 26.8508C14.9011 26.9199 14.8236 26.9694 14.7339 26.9885L14.6485 27Z" fill="#1D1D1B" stroke="#1D1D1B" stroke-width="0.75" stroke-linecap="round" stroke-linejoin="round"></path>
<path d="M58.6485 27C58.5705 26.9991 58.4951 26.9714 58.4344 26.9215C58.3736 26.8716 58.331 26.8023 58.3133 26.7247C57.9322 25.1269 57.4394 24.4354 56.9071 22.9987C56.6114 22.1931 56.3091 21.3673 56.02 20.4677C56.0045 20.4236 55.9979 20.3769 56.0006 20.3302C56.0032 20.2835 56.0149 20.2378 56.0352 20.1959C56.0554 20.1539 56.0837 20.1165 56.1183 20.086C56.1529 20.0554 56.1932 20.0322 56.2368 20.0179C56.2804 20.0032 56.3264 19.9975 56.3721 20.001C56.4179 20.0046 56.4625 20.0173 56.5034 20.0385C56.5443 20.0597 56.5807 20.089 56.6105 20.1246C56.6403 20.1602 56.6629 20.2015 56.6771 20.2461C56.9662 21.1256 57.2685 21.9514 57.5642 22.7503C58.0965 24.2071 58.6025 24.9121 58.9902 26.5569C59.012 26.6486 58.9972 26.7454 58.9491 26.826C58.9011 26.9065 58.8236 26.9643 58.7339 26.9866L58.6485 27Z" fill="#1D1D1B" stroke="#1D1D1B" stroke-width="0.75" stroke-linecap="round" stroke-linejoin="round"></path>
<path d="M6.85639 20.9996C6.46928 20.9996 6.07336 20.9996 5.68624 20.9458C4.73891 20.9187 3.82057 20.6064 3.04681 20.048C2.61737 19.728 2.29663 19.2791 2.12942 18.764C1.96222 18.2489 1.9569 17.6934 2.11421 17.1751C2.49253 16.1696 3.49551 15.5591 5.19355 15.3167C6.77256 15.0866 8.36755 14.9905 9.96213 15.0294C11.9666 14.9454 13.9745 15.0415 15.9624 15.3167C16.5638 15.4374 17.1017 15.7773 17.4756 16.2729C17.8496 16.7684 18.0341 17.3859 17.9948 18.01C18.0032 18.4978 17.8815 18.9788 17.6429 19.4016C17.1755 19.9202 16.5598 20.2752 15.8833 20.4161C14.7196 20.6069 13.5426 20.7 12.364 20.6944C11.4842 20.6944 10.6044 20.7393 9.77737 20.838C8.80772 20.9511 7.83233 21.005 6.85639 20.9996ZM9.24068 15.9451C7.92477 15.9463 6.61059 16.0423 5.30792 16.2324C3.97941 16.421 3.21397 16.8339 2.97642 17.4803C2.89088 17.8099 2.90567 18.1582 3.01883 18.4789C3.13198 18.7996 3.33814 19.0776 3.60989 19.2759C4.24448 19.7324 4.99799 19.9856 5.77422 20.0031C7.08122 20.0896 8.39351 20.0354 9.68939 19.8415C10.5692 19.7338 11.5018 19.7068 12.3288 19.6889C13.4487 19.6947 14.567 19.6046 15.6721 19.4195C16.0819 19.3154 16.4636 19.1191 16.7895 18.845C16.9207 18.5929 16.993 18.3133 17.0006 18.028C16.9038 16.6634 16.2616 16.3581 15.7073 16.2324C13.8035 15.9728 11.8812 15.8827 9.96213 15.9631H9.19669L9.24068 15.9451Z" fill="#1D1D1B" stroke="#1D1D1B" stroke-width="0.75" stroke-linecap="round" stroke-linejoin="round"></path>
<path d="M50.2493 19.9996C49.9106 19.9996 49.5642 19.9996 49.2255 19.9458C48.3965 19.9187 47.593 19.6064 46.916 19.048C46.5402 18.728 46.2596 18.2791 46.1132 17.764C45.9669 17.2489 45.9623 16.6934 46.0999 16.1751C46.431 15.1696 47.3086 14.5591 48.7944 14.3167C50.176 14.0866 51.5716 13.9905 52.9669 14.0294C54.7208 13.9454 56.4777 14.0415 58.2171 14.3167C58.7434 14.4374 59.214 14.7773 59.5412 15.2729C59.8684 15.7684 60.0298 16.3859 59.9955 17.01C60.0028 17.4978 59.8963 17.9788 59.6875 18.4016C59.2786 18.9202 58.7398 19.2752 58.1478 19.4161C57.1297 19.6069 56.0998 19.7 55.0685 19.6944C54.2987 19.6944 53.5288 19.7393 52.8052 19.838C51.9568 19.9511 51.1033 20.005 50.2493 19.9996ZM52.3356 14.9451C51.1842 14.9463 50.0343 15.0423 48.8944 15.2324C47.732 15.421 47.0622 15.8339 46.8544 16.4803C46.7795 16.8099 46.7925 17.1582 46.8915 17.4789C46.9905 17.7996 47.1709 18.0776 47.4087 18.2759C47.9639 18.7324 48.6232 18.9856 49.3024 19.0031C50.4461 19.0896 51.5943 19.0354 52.7282 18.8415C53.498 18.7338 54.3141 18.7068 55.0377 18.6889C56.0176 18.6947 56.9961 18.6046 57.9631 18.4195C58.3216 18.3154 58.6557 18.1191 58.9408 17.845C59.0556 17.5929 59.1188 17.3133 59.1255 17.028C59.0409 15.6634 58.4789 15.3581 57.9939 15.2324C56.3281 14.9728 54.6461 14.8827 52.9669 14.9631H52.2971L52.3356 14.9451Z" fill="#1D1D1B" stroke="#1D1D1B" stroke-width="0.75" stroke-linecap="round" stroke-linejoin="round"></path>
</svg>
