<svg width="54" height="34" viewBox="0 0 54 34" fill="none" xmlns="http://www.w3.org/2000/svg">
<path d="M25.5649 15C21.9586 15 20.6682 14.9152 17.0907 14.7457C16.624 14.7457 15.7541 14.684 15.2933 13.8517C15.1865 13.6508 15.1123 13.4222 15.0756 13.1806C15.0389 12.939 15.0404 12.6898 15.0801 12.4491C15.1353 12.1174 15.2404 11.8043 15.389 11.5287C15.5375 11.2531 15.7265 11.0209 15.9442 10.8461C16.6379 10.3946 17.4119 10.2104 18.1795 10.3143C21.2097 10.3759 21.9874 10.3143 24.9715 10.1679C29.3959 10.0137 29.3671 9.85188 33.8663 10.2449C34.3947 10.314 34.9255 10.3449 35.4563 10.3374C36.3608 10.3374 37.2998 10.3374 38.2331 10.4222H38.3886C38.8095 10.4035 39.2278 10.517 39.6099 10.7536C40.2321 11.293 39.3737 13.5511 39.368 13.5742C39.2382 13.7978 39.0697 13.9757 38.8769 14.0926C38.6842 14.2094 38.4731 14.2616 38.2619 14.2447C32.1323 14.7534 31.7233 15 25.5649 15ZM17.8165 11.1466C17.2759 11.0976 16.7352 11.2412 16.2496 11.5628C16.1045 11.6801 15.9786 11.8355 15.8796 12.0196C15.7806 12.2037 15.7105 12.4127 15.6735 12.634C15.6468 12.7647 15.6422 12.9017 15.6601 13.0351C15.6781 13.1684 15.7181 13.2947 15.7772 13.4047C16.0364 13.8748 16.5952 13.9365 17.1022 13.9673C26.7862 14.4297 28.526 14.2602 38.1985 13.4741C38.4405 13.4741 38.7285 13.4047 38.8149 13.2043C39.025 12.659 39.156 12.0654 39.2009 11.4549C38.9191 11.3392 38.6258 11.282 38.331 11.2853H38.1697C37.2595 11.2083 36.3262 11.2083 35.4275 11.2006C34.8844 11.1933 34.3419 11.1445 33.803 11.0541C29.3325 10.6688 29.3786 10.8229 24.96 10.9771C21.9701 11.085 21.1866 11.1929 18.1507 11.1312L17.8165 11.1466Z" fill="#1D1D1B" stroke="#1D1D1B" stroke-width="0.75" stroke-linecap="round" stroke-linejoin="round"></path>
<path d="M18.1477 22H18.0239C17.9131 21.9849 17.8196 21.9517 17.7629 21.9074C17.7061 21.863 17.6903 21.8107 17.7188 21.7614C19.2365 19.4623 19.8716 17.4921 21.2573 15.1821C21.2606 15.1535 21.2784 15.1256 21.3095 15.1004C21.3405 15.0753 21.3841 15.0535 21.4369 15.0366C21.4897 15.0198 21.5504 15.0084 21.6146 15.0032C21.6788 14.998 21.7449 14.9992 21.8079 15.0066C21.871 15.0141 21.9294 15.0276 21.9789 15.0463C22.0284 15.0649 22.0678 15.0882 22.0941 15.1144C22.1204 15.1406 22.133 15.169 22.1309 15.1976C22.1289 15.2262 22.1122 15.2543 22.0822 15.2797C20.7047 17.5897 20.0613 19.5671 18.5518 21.8662C18.5245 21.9042 18.4709 21.9374 18.3985 21.9614C18.326 21.9854 18.2384 21.9988 18.1477 22Z" fill="#1D1D1B" stroke="#1D1D1B" stroke-width="0.75" stroke-linecap="round" stroke-linejoin="round"></path>
<path d="M36.9374 22C36.8905 21.9994 36.8449 21.9855 36.806 21.9601C36.7672 21.9347 36.7368 21.8988 36.7185 21.8569C35.5441 19.1548 35.1109 16.9212 33.6685 14.3406C33.6383 14.2871 33.6312 14.2242 33.6488 14.1656C33.6664 14.107 33.7072 14.0577 33.7623 14.0283C33.8174 13.999 33.8822 13.9921 33.9425 14.0092C34.0028 14.0263 34.0536 14.0659 34.0838 14.1194C35.5396 16.7217 35.9817 18.9597 37.1606 21.6791C37.1731 21.7069 37.1798 21.737 37.1803 21.7674C37.1808 21.7978 37.175 21.828 37.1634 21.8562C37.1518 21.8845 37.1345 21.9102 37.1125 21.9319C37.0906 21.9536 37.0645 21.9708 37.0356 21.9827C37.0039 21.993 36.9708 21.9988 36.9374 22Z" fill="#1D1D1B" stroke="#1D1D1B" stroke-width="0.75" stroke-linecap="round" stroke-linejoin="round"></path>
<path d="M5.18435 21.9998C4.84165 21.9998 4.49117 21.9998 4.14848 21.9638C3.30985 21.9458 2.4969 21.7376 1.81193 21.3653C1.43177 21.152 1.14784 20.8527 0.999817 20.5093C0.851798 20.166 0.84709 19.7956 0.98635 19.4501C1.32126 18.7797 2.20914 18.3727 3.71232 18.2111C5.11014 18.0577 6.52209 17.9937 7.93369 18.0196C9.70815 17.9636 11.4856 18.0277 13.2454 18.2111C13.7778 18.2916 14.2539 18.5182 14.585 18.8486C14.916 19.1789 15.0794 19.5906 15.0446 20.0067C15.052 20.3319 14.9443 20.6525 14.733 20.9344C14.3193 21.2801 13.7742 21.5168 13.1753 21.6107C12.1452 21.738 11.1033 21.8 10.0599 21.7963C9.2811 21.7963 8.50225 21.8262 7.77013 21.892C6.91175 21.9674 6.04829 22.0033 5.18435 21.9998ZM7.29503 18.6301C6.13012 18.6309 4.96675 18.6949 3.81357 18.8216C2.63751 18.9473 1.95991 19.2226 1.74962 19.6536C1.6739 19.8732 1.68699 20.1054 1.78716 20.3193C1.88733 20.5331 2.06983 20.7184 2.31039 20.8506C2.87216 21.1549 3.5392 21.3237 4.22636 21.3354C5.38337 21.3931 6.54507 21.3569 7.69224 21.2277C8.47109 21.1558 9.29667 21.1379 10.0288 21.1259C11.0201 21.1298 12.0101 21.0697 12.9884 20.9464C13.3512 20.8769 13.6891 20.746 13.9776 20.5633C14.0937 20.3953 14.1577 20.2089 14.1645 20.0187C14.0788 19.1089 13.5102 18.9054 13.0196 18.8216C11.3343 18.6485 9.63255 18.5885 7.93369 18.6421H7.25609L7.29503 18.6301Z" fill="#1D1D1B" stroke="#1D1D1B" stroke-width="0.75" stroke-linecap="round" stroke-linejoin="round"></path>
<path d="M43.2991 21.9998C42.9564 21.9998 42.6059 21.9998 42.2632 21.9638C41.4246 21.9458 40.6117 21.7376 39.9267 21.3653C39.5465 21.152 39.2626 20.8527 39.1146 20.5093C38.9666 20.166 38.9618 19.7956 39.1011 19.4501C39.436 18.7797 40.3239 18.3727 41.8271 18.2111C43.2249 18.0577 44.6368 17.9937 46.0484 18.0196C47.8229 17.9636 49.6003 18.0277 51.3602 18.2111C51.8926 18.2916 52.3687 18.5182 52.6997 18.8486C53.0308 19.1789 53.1941 19.5906 53.1593 20.0067C53.1667 20.3319 53.0591 20.6525 52.8478 20.9344C52.4341 21.2801 51.889 21.5168 51.2901 21.6107C50.26 21.738 49.218 21.8 48.1747 21.7963C47.3958 21.7963 46.617 21.8262 45.8849 21.892C45.0265 21.9674 44.163 22.0033 43.2991 21.9998ZM45.4098 18.6301C44.2449 18.6309 43.0815 18.6949 41.9283 18.8216C40.7523 18.9473 40.0747 19.2226 39.8644 19.6536C39.7886 19.8732 39.8017 20.1054 39.9019 20.3193C40.0021 20.5331 40.1846 20.7184 40.4251 20.8506C40.9869 21.1549 41.654 21.3237 42.3411 21.3354C43.4981 21.3931 44.6598 21.3569 45.807 21.2277C46.5858 21.1558 47.4114 21.1379 48.1435 21.1259C49.1349 21.1298 50.1249 21.0697 51.1032 20.9464C51.4659 20.8769 51.8039 20.746 52.0923 20.5633C52.2085 20.3953 52.2725 20.2089 52.2792 20.0187C52.1936 19.1089 51.625 18.9054 51.1343 18.8216C49.449 18.6485 47.7473 18.5885 46.0484 18.6421H45.3708L45.4098 18.6301Z" fill="#1D1D1B" stroke="#1D1D1B" stroke-width="0.75" stroke-linecap="round" stroke-linejoin="round"></path>
</svg>
