<svg width="500" height="500" viewBox="0 0 500 500" fill="none" xmlns="http://www.w3.org/2000/svg">
<path d="M347.5 344L450.5 127" stroke="black" stroke-width="17"></path>
<path d="M254.198 256.627C191.517 258.541 105.474 203.039 84.9044 189.106C83.9823 188.481 82.834 189.576 83.4708 190.489C96.8758 209.725 150.592 284.485 186.266 300.102C227.29 318.063 226.904 317.533 255.25 316.903C283.596 316.273 300.439 308.815 325.77 295.574C347.639 284.143 401.459 206.353 415.765 185.298C416.406 184.354 415.199 183.217 414.287 183.903C393.975 199.174 315.984 254.74 254.198 256.627Z" stroke="black" stroke-width="17"></path>
<path d="M115.5 372.75L154.895 343.943C155.066 343.818 155.273 343.75 155.485 343.75H344.326C344.529 343.75 344.728 343.812 344.895 343.928L386.5 372.75" stroke="black" stroke-width="17"></path>
<path d="M163 344.25L50 127.25" stroke="black" stroke-width="17"></path>
</svg>
