<svg id="Layer_1" data-name="Layer 1" xmlns="http://www.w3.org/2000/svg" viewBox="0 0 134.22 130.07"><defs><style>.cls-1{fill:#006c43;}</style></defs><path class="cls-1" d="M84.3,16.79a32.21,32.21,0,0,1,5.59,0q6.94.83,20.63,3.2,14.31,3.2,14.31,18.13a36.15,36.15,0,0,1-3.16,14q-3.17,7.47-11.46,14a46.7,46.7,0,0,1-15.65,8.3q-16.17,4.86-17,5.09a37.21,37.21,0,0,0-14.72,9.84,74.12,74.12,0,0,0-11.2,18.13c-1,2.68-2.1,5.33-3.21,7.93-1.31,2.85-2.87,4.27-4.66,4.27-1.46,0-3.18-.87-5.19-2.61a9.19,9.19,0,0,1-3.31-7.11q0-4.26,3.94-11.13,5.68-10.2,5.9-10.55a36.16,36.16,0,0,0,2.6-10.78q.2-2.49.2-11.61,0-4.15,1.45-5.45c.62-.64,2.32-1.31,5.08-2q3.53-.95,6.43-5,2.39-3.43,4.77-6.75c2.21-2.37,4.07-3.55,5.6-3.55a3.77,3.77,0,0,1,2.85,1.48A5,5,0,0,1,75.38,48a11.29,11.29,0,0,1-1.14,4.27l-2.07,4a16,16,0,0,0,7.88,1.89q6,0,21.14-6.16a19.69,19.69,0,0,0,5.5-3.67c2.28-2.13,3.55-4.11,3.83-5.93a5,5,0,0,0-3-5.56,44.19,44.19,0,0,0-6.33-1.9,37.83,37.83,0,0,0-9.74-1.19q-5.19,0-19.28,2.26-10.78,1.77-26.54,8.29Q20,55.18,19.92,55.18a11.48,11.48,0,0,1-3.73.59c-3.8,0-6-1.26-6.53-3.79a7.18,7.18,0,0,1-.2-1.66q0-5.8,9.53-12.2A121.34,121.34,0,0,1,47.6,24.26Q55,21.65,77.77,15.72q0-.22,3.21.42C83.12,16.57,84.23,16.79,84.3,16.79Z"></path></svg>